<svg width="395" height="66" viewBox="0 0 395 66" fill="none" xmlns="http://www.w3.org/2000/svg">
<g clip-path="url(#clip0)">
<path d="M31.82 54.15L14 43.87V23.29L31.82 13L49.64 23.29V43.87L31.82 54.15Z" fill="white"/>
<path d="M46.19 41.88V25.28L31.82 16.99L17.45 25.28V41.88L31.82 50.18L46.19 41.88Z" fill="white"/>
<path d="M31.82 53.36L14.72 43.45V23.69L31.82 13.8L48.95 23.69V43.45L31.82 53.36ZM46.2 41.87V25.26L31.82 16.95L17.44 25.26V41.87L31.82 50.19L46.2 41.87Z" fill="#762B8A"/>
<path d="M34.53 42.72V39.95L43.43 34.77V32.01L34.53 37.14V34.39L43.43 29.27V26.87L31.82 20.16L20.2 26.87V40.29L31.82 47L43.43 40.29V37.53L34.53 42.72Z" fill="url(#paint0_linear)"/>
<path d="M71.61 39.7H58.05V27.04H71.17V29.83H61.06V31.73H68.08V34.51H61.06V36.92H71.61V39.7Z" fill="white"/>
<path d="M75.66 27.04V39.7H78.67V30.33L86.31 39.7H90.3V27.04H87.28V36.43L79.64 27.04H75.66Z" fill="white"/>
<path d="M93.86 27.04V29.82H99.59V39.7H102.6V29.82H108.33V27.04H93.86Z" fill="white"/>
<path d="M166.61 27.04V29.82H172.33V39.7H175.34V29.82H181.07V27.04H166.61Z" fill="white"/>
<path d="M121.93 27.0399C123.127 26.9766 124.302 27.3779 125.21 28.1599C125.616 28.5434 125.936 29.0097 126.146 29.5273C126.357 30.0449 126.453 30.6017 126.43 31.1599C126.507 32.0272 126.269 32.8932 125.761 33.5999C125.252 34.3066 124.507 34.8071 123.66 35.0099V35.0099L127 39.6899H123.49L120.35 35.3099H114.92V39.7199H111.92V27.0399H121.93ZM114.93 29.8299V32.5099H121.41C123.21 32.5099 123.41 31.8699 123.41 31.1499C123.41 30.4299 122.89 29.8199 121.55 29.8199L114.93 29.8299Z" fill="white"/>
<path d="M138.2 37.31C142.12 37.31 142.49 35.96 142.49 34.81V27.04H145.49V35.42C145.49 38.42 142.28 40.05 138.19 40.05C134.11 40.05 130.89 38.42 130.89 35.42V27.04H133.89V34.77C133.89 35.92 134.25 37.27 138.17 37.27L138.2 37.31Z" fill="white"/>
<path d="M161.71 30.73L163.59 28.73C161.05 26.73 157.82 26.73 156.93 26.73C156.04 26.73 150.07 26.55 149.8 30.61C149.62 33.36 152.25 34.26 156.48 34.37C160.71 34.48 160.88 35.21 160.88 35.67C160.88 36.13 160.34 37.28 156.55 37.22C154.485 37.228 152.476 36.5569 150.83 35.31L149.14 37.52C151.35 39.1822 154.067 40.03 156.83 39.92C160.62 39.92 163.83 38.92 164.05 35.84C164.25 32.23 160.57 31.84 157.21 31.53C153.85 31.22 152.94 31.18 152.95 30.38C152.96 29.58 155.41 29.38 157.11 29.47C158.721 29.5201 160.298 29.952 161.71 30.73V30.73Z" fill="white"/>
<path d="M201.67 13H201.09V53.75H201.67V13Z" fill="white"/>
<path d="M225 36.95H227.31V33.8H229.065C231.42 33.8 233.31 32.54 233.31 30.11V30.08C233.31 27.935 231.795 26.45 229.29 26.45H225V36.95ZM227.31 31.745V28.535H229.095C230.25 28.535 230.97 29.09 230.97 30.125V30.155C230.97 31.055 230.295 31.745 229.14 31.745H227.31Z" fill="white"/>
<path d="M234.78 36.95H237.06V33.98C237.06 32.06 237.99 31.145 239.505 31.145H239.625V28.76C238.275 28.7 237.525 29.42 237.06 30.53V28.91H234.78V36.95Z" fill="white"/>
<path d="M244.774 37.13C247.279 37.13 249.139 35.255 249.139 32.945V32.915C249.139 30.605 247.294 28.76 244.804 28.76C242.299 28.76 240.439 30.635 240.439 32.945V32.975C240.439 35.285 242.284 37.13 244.774 37.13ZM244.804 35.165C243.544 35.165 242.689 34.13 242.689 32.945V32.915C242.689 31.73 243.469 30.725 244.774 30.725C246.034 30.725 246.889 31.76 246.889 32.945V32.975C246.889 34.16 246.109 35.165 244.804 35.165Z" fill="white"/>
<path d="M254.09 37.1C255.275 37.1 256.04 36.545 256.595 35.795V36.95H258.875V26H256.595V29.96C256.055 29.315 255.305 28.76 254.09 28.76C252.185 28.76 250.43 30.23 250.43 32.915V32.945C250.43 35.63 252.215 37.1 254.09 37.1ZM254.675 35.165C253.61 35.165 252.71 34.28 252.71 32.945V32.915C252.71 31.565 253.61 30.695 254.675 30.695C255.74 30.695 256.625 31.58 256.625 32.915V32.945C256.625 34.28 255.74 35.165 254.675 35.165Z" fill="white"/>
<path d="M263.582 37.1C264.737 37.1 265.412 36.485 265.937 35.81V36.95H268.217V28.91H265.937V33.395C265.937 34.475 265.382 35.03 264.512 35.03C263.642 35.03 263.132 34.475 263.132 33.395V28.91H260.852V34.115C260.852 35.96 261.857 37.1 263.582 37.1Z" fill="white"/>
<path d="M274.053 37.13C275.658 37.13 276.558 36.515 277.338 35.66L276.003 34.31C275.448 34.835 274.923 35.165 274.158 35.165C272.913 35.165 272.118 34.175 272.118 32.945V32.915C272.118 31.73 272.928 30.725 274.068 30.725C274.878 30.725 275.388 31.07 275.898 31.61L277.293 30.11C276.543 29.27 275.598 28.76 274.083 28.76C271.623 28.76 269.868 30.65 269.868 32.945V32.975C269.868 35.27 271.638 37.13 274.053 37.13Z" fill="white"/>
<path d="M281.542 37.085C282.307 37.085 282.862 36.905 283.342 36.62V34.79C283.012 34.97 282.637 35.075 282.217 35.075C281.707 35.075 281.482 34.82 281.482 34.295V30.86H283.372V28.91H281.482V26.855H279.202V28.91H278.242V30.86H279.202V34.67C279.202 36.53 280.147 37.085 281.542 37.085Z" fill="white"/>
<path d="M285.098 28.025H287.498V26H285.098V28.025ZM285.158 36.95H287.438V28.91H285.158V36.95Z" fill="white"/>
<path d="M293.524 37.13C296.029 37.13 297.889 35.255 297.889 32.945V32.915C297.889 30.605 296.044 28.76 293.554 28.76C291.049 28.76 289.189 30.635 289.189 32.945V32.975C289.189 35.285 291.034 37.13 293.524 37.13ZM293.554 35.165C292.294 35.165 291.439 34.13 291.439 32.945V32.915C291.439 31.73 292.219 30.725 293.524 30.725C294.784 30.725 295.639 31.76 295.639 32.945V32.975C295.639 34.16 294.859 35.165 293.554 35.165Z" fill="white"/>
<path d="M299.54 36.95H301.82V32.465C301.82 31.385 302.375 30.83 303.245 30.83C304.115 30.83 304.625 31.385 304.625 32.465V36.95H306.905V31.745C306.905 29.9 305.9 28.76 304.175 28.76C303.02 28.76 302.345 29.375 301.82 30.05V28.91H299.54V36.95Z" fill="white"/>
<path d="M312.723 36.95H315.078L316.038 34.595H320.478L321.438 36.95H323.853L319.353 26.375H317.223L312.723 36.95ZM316.863 32.555L318.258 29.15L319.653 32.555H316.863Z" fill="white"/>
<path d="M325.234 36.95H327.514V32.465C327.514 31.385 328.069 30.83 328.939 30.83C329.809 30.83 330.319 31.385 330.319 32.465V36.95H332.599V31.745C332.599 29.9 331.594 28.76 329.869 28.76C328.714 28.76 328.039 29.375 327.514 30.05V28.91H325.234V36.95Z" fill="white"/>
<path d="M336.859 37.1C337.969 37.1 338.734 36.695 339.289 36.08V36.95H341.494V32.285C341.494 31.205 341.224 30.32 340.624 29.72C340.054 29.15 339.154 28.82 337.909 28.82C336.544 28.82 335.674 29.075 334.789 29.465L335.359 31.205C336.094 30.935 336.709 30.77 337.579 30.77C338.719 30.77 339.304 31.295 339.304 32.24V32.375C338.734 32.18 338.149 32.045 337.339 32.045C335.434 32.045 334.099 32.855 334.099 34.61V34.64C334.099 36.23 335.344 37.1 336.859 37.1ZM337.549 35.525C336.814 35.525 336.304 35.165 336.304 34.55V34.52C336.304 33.8 336.904 33.41 337.879 33.41C338.434 33.41 338.944 33.53 339.334 33.71V34.115C339.334 34.94 338.614 35.525 337.549 35.525Z" fill="white"/>
<path d="M343.561 36.95H345.841V26H343.561V36.95Z" fill="white"/>
<path d="M349.903 39.395C351.268 39.395 351.928 38.78 352.543 37.145L355.633 28.91H353.263L351.508 34.385L349.678 28.91H347.263L350.413 36.98C350.218 37.385 350.008 37.505 349.618 37.505C349.318 37.505 348.943 37.37 348.643 37.19L347.878 38.84C348.463 39.185 349.078 39.395 349.903 39.395Z" fill="white"/>
<path d="M359.692 37.085C360.457 37.085 361.012 36.905 361.492 36.62V34.79C361.162 34.97 360.787 35.075 360.367 35.075C359.857 35.075 359.632 34.82 359.632 34.295V30.86H361.522V28.91H359.632V26.855H357.352V28.91H356.392V30.86H357.352V34.67C357.352 36.53 358.297 37.085 359.692 37.085Z" fill="white"/>
<path d="M363.247 28.025H365.647V26H363.247V28.025ZM363.307 36.95H365.587V28.91H363.307V36.95Z" fill="white"/>
<path d="M371.524 37.13C373.129 37.13 374.029 36.515 374.809 35.66L373.474 34.31C372.919 34.835 372.394 35.165 371.629 35.165C370.384 35.165 369.589 34.175 369.589 32.945V32.915C369.589 31.73 370.399 30.725 371.539 30.725C372.349 30.725 372.859 31.07 373.369 31.61L374.764 30.11C374.014 29.27 373.069 28.76 371.554 28.76C369.094 28.76 367.339 30.65 367.339 32.945V32.975C367.339 35.27 369.109 37.13 371.524 37.13Z" fill="white"/>
<path d="M379.118 37.1C380.858 37.1 382.193 36.29 382.193 34.505V34.475C382.193 33.005 380.888 32.465 379.763 32.09C378.893 31.79 378.128 31.58 378.128 31.13V31.1C378.128 30.785 378.413 30.545 378.968 30.545C379.553 30.545 380.348 30.83 381.143 31.295L382.013 29.72C381.143 29.135 380.033 28.79 379.013 28.79C377.393 28.79 376.073 29.705 376.073 31.34V31.37C376.073 32.93 377.348 33.455 378.473 33.785C379.358 34.055 380.138 34.22 380.138 34.715V34.745C380.138 35.105 379.838 35.345 379.178 35.345C378.428 35.345 377.513 35.015 376.643 34.385L375.668 35.885C376.733 36.725 377.993 37.1 379.118 37.1Z" fill="white"/>
</g>
<defs>
<linearGradient id="paint0_linear" x1="31.82" y1="20.17" x2="31.82" y2="47" gradientUnits="userSpaceOnUse">
<stop offset="0.2" stop-color="#C6168D"/>
<stop offset="0.8" stop-color="#762B8A"/>
</linearGradient>
<clipPath id="clip0">
<rect width="395" height="66" fill="white"/>
</clipPath>
</defs>
</svg>
